# Alias OBJ Model File
# Exported from SketchUp, (c) 2000-2012 Trimble Navigation Limited
# File units = meters

mtllib filled_diamond.mtl

g Mesh1 Mesh1_skp412A1_Model Model

usemtl _auto_
v -9.831 -1 14.0085
vt 398.268 683.638
vn -3.80405e-031 -1 -3.06285e-016
v 10.076 -1 13.909
vt -385.472 688.535
v 0.277241 -1 27.8302
vt 0.305478 3.4368
f 1/1/1 2/2/1 3/3/1

vt -39.3701 -393.988
vn -0.00781108 4.78556e-016 -0.999969
v -9.831 1 14.0085
vt 39.3701 -393.988
v 10.076 1 13.909
vt 39.3701 389.768
vt -39.3701 389.768
f 1/4/2 4/5/2 5/6/2 2/7/2 

v 0.277241 1 27.8302
vt 39.3701 3.12065
vn -0.905702 -2.02874e-016 0.423916
vt 39.3701 791.186
vt -39.3701 791.186
vt -39.3701 3.12065
f 6/8/3 4/9/3 1/10/3 3/11/3 

vt -398.268 683.638
vn 3.80405e-031 1 3.06285e-016
vt -0.305478 3.4368
vt 385.472 688.535
f 4/12/4 6/13/4 5/14/4

vt 39.3701 2.84478
vn 0.911758 -1.96562e-016 0.410728
vt 39.3701 789.092
vt -39.3701 789.092
vt -39.3701 2.84478
f 3/15/5 2/16/5 5/17/5 6/18/5 

g Mesh2 Mesh1_skp412A1_Model1 Model

v 10.076 -1 13.909
vn 0 -1 -3.06285e-016
v -9.831 -1 14.0085
v -0.0322409 -1 0.0872946
f 7/1/6 8/2/6 9/3/6

vn 0.00781108 -4.78556e-016 0.999969
v 10.076 1 13.909
v -9.831 1 14.0085
f 7/4/7 10/5/7 11/6/7 8/7/7 

v -0.0322409 1 0.0872946
vn 0.905702 2.02874e-016 -0.423916
f 12/8/8 10/9/8 7/10/8 9/11/8 

vn 0 1 3.06285e-016
f 10/12/9 12/13/9 11/14/9

vn -0.911758 1.96562e-016 -0.410728
f 9/15/10 8/16/10 11/17/10 12/18/10 

