# Alias OBJ Model File
# Exported from SketchUp, (c) 2000-2012 Trimble Navigation Limited
# File units = meters

mtllib empty_diamond.mtl

g Mesh1 Union Model

usemtl FrontColor
v 0.00629605 -0.990716 -0.0021471
vt -439.716 1194.48
vn -2.18829e-019 -1 -4.76312e-016
v -8.97318 -0.990716 15.1803
vt -86.1936 596.743
v -11.1625 -0.990716 15.1677
vt 6.2195e-032 597.239
f 1/1/1 2/2/1 3/3/1

v -0.00221232 -0.990716 3.05969
vt -439.381 1073.93
f 2/2/1 1/1/1 4/4/1

v 8.81028 -0.990716 15.1551
vt -786.33 597.736
f 4/4/1 1/1/1 5/5/1

v 10.9996 -0.990716 15.1677
vt -872.524 597.239
f 5/5/1 1/1/1 6/6/1

v 0.00629605 1.02518 -0.0021471
vt 709.185 79.366
vn 0.809734 3.75248e-016 -0.586798
v 10.9996 1.02518 15.1677
vt -28.39 79.366
vt -28.39 -1.12409e-013
vt 709.185 1.71808e-013
f 7/7/2 8/8/2 6/9/2 1/10/2 

vt 439.716 1194.48
vn -3.17386e-018 1 4.8336e-016
v 8.81028 1.02518 15.1551
vt 786.33 597.736
vt 872.524 597.239
f 7/11/3 9/12/3 8/13/3

v -0.00221232 1.02518 3.05969
vt 439.381 1073.93
f 7/11/3 10/14/3 9/12/3

v -8.97318 1.02518 15.1803
vt 86.1936 596.743
f 7/11/3 11/15/3 10/14/3

v -11.1625 1.02518 15.1677
vt 2.51896e-016 597.239
f 11/15/3 7/11/3 12/16/3

vt -1222.6 5.24881e-013
vn -0.805284 1.22997e-016 -0.592889
vt -480.947 2.40664e-013
vt -480.947 79.366
vt -1222.6 79.366
f 1/17/4 3/18/4 12/19/4 7/20/4 

v -0.169196 1.02518 30.3376
vt 253.97 79.366
vn -0.809734 2.80367e-017 0.586798
vt -483.605 79.366
vt -483.605 2.94043e-013
v -0.169196 -0.990716 30.3376
vt 253.97 9.82572e-015
f 13/21/5 12/22/5 3/23/5 14/24/5 

vt 432.807 3.83623e-014
f 13/25/3 11/15/3 12/16/3

v -0.160688 1.02518 27.2758
vt 433.142 120.545
f 11/15/3 13/25/3 15/26/3

f 15/26/3 13/25/3 8/13/3

vt 256.607 1.02541e-013
vn 0.805284 -2.94209e-016 0.592889
vt 998.257 3.86759e-013
vt 998.257 79.366
vt 256.607 79.366
f 14/27/6 6/28/6 8/29/6 13/30/6 

vt -432.807 4.51119e-032
v -0.160688 -0.990716 27.2758
vt -433.142 120.545
f 14/31/1 16/32/1 6/6/1

f 14/31/1 2/2/1 16/32/1

f 2/2/1 14/31/1 3/3/1

vt 431.551 79.366
vn 0.808233 4.27942e-016 -0.588863
vt -157.633 79.366
vt -157.633 -1.23348e-013
vt 431.551 1.04026e-013
f 11/33/7 15/34/7 16/35/7 2/36/7 

vt -948.253 79.366
vn -0.803788 9.33402e-018 -0.594915
vt -948.253 2.86797e-013
vt -354.575 5.94237e-014
vt -354.575 79.366
f 9/37/8 5/38/8 16/39/8 15/40/8 

vt -20.0693 79.366
vn -0.808233 -6.11346e-017 0.588863
vt -609.253 79.366
vt -609.253 4.51219e-013
vt -20.0693 2.23845e-013
f 9/41/9 10/42/9 4/43/9 5/44/9 

vt 530.933 79.366
vn 0.803788 -2.81661e-016 0.594915
vt 530.933 2.03738e-013
vt 1124.61 4.31112e-013
vt 1124.61 79.366
f 11/45/10 2/46/10 4/47/10 10/48/10 

f 6/6/1 16/32/1 5/5/1

f 15/26/3 8/13/3 9/12/3

